# xmcd
#
# Track frame offsets: 
#        150
#        17404
#        38316
#        57347
#        74079
#        90344
#        108041
#        124169
#        137703
#        151392
#        165928
#
# Disc length: 2387 seconds
#
# Revision: 0
# Processed by: cddbd v1.5.2PL0 Copyright (c) Steve Scherf et al.
# Submitted via: ExactAudioCopy v1.3
#
DISCID=7d09510b
DTITLE=Gina Sicilia - Tug Of War
DYEAR=2017
DGENRE=Blues
TTITLE0=I Don't Want To Be In Love
TTITLE1=Damaging Me
TTITLE2=He Called Me Baby
TTITLE3=I'll Stand Up
TTITLE4=Never Gonna End
TTITLE5=I Cried
TTITLE6=They Never Pay Me
TTITLE7=Abandoned
TTITLE8=Tell Him
TTITLE9=All My Loving
TTITLE10=Heaven
EXTD=
EXTT0=
EXTT1=
EXTT2=
EXTT3=
EXTT4=
EXTT5=
EXTT6=
EXTT7=
EXTT8=
EXTT9=
EXTT10=
PLAYORDER=
